<svg preserveAspectRatio="none" overflow="visible" style="display: block;" width="16.8" height="16.8" viewBox="0 0 16.8 16.8" fill="none" xmlns="http://www.w3.org/2000/svg">
<path id="Vector" fill-rule="evenodd" clip-rule="evenodd" d="M8.43033 0C8.63497 0 8.80857 0.146808 8.85237 0.347206C9.25317 2.21068 10.1845 3.91843 11.534 5.26453C12.8803 6.61482 14.5886 7.54666 16.4528 7.94763C16.6532 7.99136 16.8 8.16497 16.8 8.37105C16.7988 8.47024 16.7637 8.56603 16.7005 8.64252C16.6374 8.71902 16.55 8.77163 16.4528 8.79163C14.5891 9.19287 12.8814 10.1247 11.5354 11.4747C10.1675 12.8383 9.22934 14.5729 8.83682 16.464C8.81779 16.5581 8.76704 16.6428 8.69305 16.704C8.61906 16.7651 8.52632 16.799 8.43033 16.8C8.33435 16.799 8.24161 16.7651 8.16762 16.704C8.09363 16.6428 8.04288 16.5581 8.02385 16.464C7.63132 14.5729 6.69312 12.8383 5.32526 11.4747C3.96169 10.1068 2.22705 9.16862 0.335893 8.77615C0.241843 8.75706 0.157187 8.70629 0.0960565 8.63231C0.0349259 8.55834 0.00101998 8.46563 0 8.36967C0 8.17205 0.141118 8.00268 0.335893 7.96318C2.22704 7.57066 3.96167 6.63243 5.32526 5.26453C6.67522 3.91855 7.60701 2.21081 8.0083 0.347206C8.02834 0.2498 8.08117 0.162207 8.15796 0.0990259C8.23476 0.0358451 8.33089 0.00089448 8.43033 0Z" fill="#1A73E8"/>
</svg>
