<svg preserveAspectRatio="none" overflow="visible" style="display: block;" width="8.72616" height="8.78976" viewBox="0 0 8.72616 8.78976" fill="none" xmlns="http://www.w3.org/2000/svg">
<g id="image 122 [Vectorized]">
<path id="Vector" d="M2.33434 2.00319C3.82853 1.9575 4.0839 3.89474 3.70672 4.97629C3.43704 5.74958 2.9735 6.40524 2.23846 6.78736C2.40048 6.62973 2.51768 6.48542 2.64554 6.30106C2.68443 6.24809 2.72852 6.17182 2.7612 6.11473C2.97911 5.73336 3.11707 5.31005 3.18047 4.876C3.1975 4.75943 3.25144 4.53439 3.04451 4.63875C3.00996 4.65618 2.96601 4.67489 2.93008 4.69029C2.79185 4.74902 2.64492 4.78468 2.49515 4.79582C2.12135 4.8205 1.75315 4.69507 1.47213 4.44734C1.19283 4.20093 1.02366 3.85306 1.00229 3.48122C0.981186 3.1118 1.10653 2.74895 1.35116 2.47133C1.6078 2.18307 1.94995 2.02451 2.33434 2.00319Z" fill="#202124"/>
<path id="Vector_2" d="M6.1883 2.00093C6.72812 1.98273 7.15678 2.23351 7.42234 2.70338C7.77906 3.33457 7.79281 4.1335 7.61234 4.82114C7.44172 5.4712 7.06641 6.07507 6.53953 6.49465C6.4065 6.6005 6.24205 6.70462 6.09516 6.78976C6.265 6.61214 6.36197 6.51681 6.50101 6.30536C6.81175 5.86153 6.98878 5.30327 7.05699 4.76986C7.09013 4.5107 6.92751 4.63189 6.79987 4.68574C6.65867 4.74538 6.50874 4.78175 6.35591 4.79345C5.98754 4.8182 5.62436 4.69606 5.3458 4.45374C5.06327 4.20556 4.88935 3.87335 4.86569 3.49603C4.83845 3.12028 4.96429 2.74947 5.21459 2.46791C5.46834 2.18046 5.80747 2.0247 6.1883 2.00093Z" fill="#202124"/>
</g>
</svg>
